<?xml version="1.0" encoding="UTF-8"?>
<svg xmlns="http://www.w3.org/2000/svg" xmlns:xlink="http://www.w3.org/1999/xlink" width="854" height="480" viewBox="0 0 854 480">
<defs>
<g>
<g id="glyph-0-0">
<path d="M 4.492188 -6.5625 C 4.636719 -6.871094 4.816406 -7.097656 5.039062 -7.246094 C 5.261719 -7.394531 5.53125 -7.46875 5.851562 -7.46875 C 6.480469 -7.46875 6.917969 -7.25 7.15625 -6.816406 C 7.398438 -6.382812 7.519531 -5.480469 7.519531 -4.109375 L 7.519531 0 L 5.957031 0 L 5.957031 -4.679688 C 5.957031 -5.222656 5.914062 -5.585938 5.832031 -5.769531 C 5.75 -5.949219 5.601562 -6.042969 5.382812 -6.042969 C 5.167969 -6.042969 5.015625 -5.949219 4.929688 -5.761719 C 4.84375 -5.574219 4.796875 -5.214844 4.796875 -4.679688 L 4.796875 0 L 3.253906 0 L 3.253906 -4.679688 C 3.253906 -5.214844 3.210938 -5.574219 3.125 -5.761719 C 3.039062 -5.949219 2.886719 -6.042969 2.667969 -6.042969 C 2.453125 -6.042969 2.300781 -5.949219 2.21875 -5.769531 C 2.136719 -5.585938 2.097656 -5.222656 2.097656 -4.679688 L 2.097656 0 L 0.535156 0 L 0.535156 -7.292969 L 1.921875 -7.292969 L 1.921875 -6.535156 C 2.03125 -6.824219 2.203125 -7.050781 2.441406 -7.214844 C 2.679688 -7.382812 2.945312 -7.46875 3.242188 -7.46875 C 3.539062 -7.46875 3.804688 -7.378906 4.050781 -7.203125 C 4.292969 -7.027344 4.441406 -6.8125 4.492188 -6.5625 Z "/>
</g>
<g id="glyph-0-1">
<path d="M 4.558594 -3.425781 C 3.847656 -3.425781 3.347656 -3.332031 3.066406 -3.152344 C 2.785156 -2.96875 2.644531 -2.65625 2.644531 -2.214844 C 2.644531 -1.882812 2.742188 -1.621094 2.9375 -1.425781 C 3.132812 -1.230469 3.394531 -1.132812 3.730469 -1.132812 C 4.234375 -1.132812 4.625 -1.324219 4.902344 -1.703125 C 5.179688 -2.082031 5.320312 -2.613281 5.320312 -3.292969 L 5.320312 -3.425781 Z M 7.214844 -4.160156 L 7.214844 0 L 5.320312 0 L 5.320312 -0.8125 C 5.089844 -0.492188 4.792969 -0.246094 4.433594 -0.0703125 C 4.074219 0.101562 3.675781 0.1875 3.242188 0.1875 C 2.414062 0.1875 1.765625 -0.03125 1.304688 -0.46875 C 0.84375 -0.90625 0.613281 -1.519531 0.613281 -2.304688 C 0.613281 -3.15625 0.886719 -3.785156 1.4375 -4.1875 C 1.988281 -4.59375 2.84375 -4.796875 3.996094 -4.796875 L 5.320312 -4.796875 L 5.320312 -5.117188 C 5.320312 -5.425781 5.207031 -5.660156 4.984375 -5.816406 C 4.761719 -5.976562 4.429688 -6.054688 3.996094 -6.054688 C 3.542969 -6.054688 3.101562 -5.996094 2.671875 -5.882812 C 2.246094 -5.765625 1.800781 -5.582031 1.335938 -5.332031 L 1.335938 -6.960938 C 1.757812 -7.132812 2.183594 -7.261719 2.617188 -7.34375 C 3.050781 -7.425781 3.511719 -7.46875 3.996094 -7.46875 C 5.183594 -7.46875 6.015625 -7.226562 6.492188 -6.746094 C 6.972656 -6.261719 7.214844 -5.402344 7.214844 -4.160156 Z "/>
</g>
<g id="glyph-0-2">
<path d="M 7.492188 -5.28125 C 7.285156 -5.472656 7.039062 -5.613281 6.761719 -5.710938 C 6.480469 -5.804688 6.175781 -5.851562 5.839844 -5.851562 C 5.4375 -5.851562 5.082031 -5.78125 4.78125 -5.640625 C 4.480469 -5.5 4.246094 -5.296875 4.082031 -5.027344 C 3.976562 -4.863281 3.90625 -4.660156 3.863281 -4.425781 C 3.824219 -4.191406 3.800781 -3.835938 3.800781 -3.359375 L 3.800781 0 L 1.894531 0 L 1.894531 -7.292969 L 3.800781 -7.292969 L 3.800781 -6.160156 C 3.988281 -6.574219 4.273438 -6.898438 4.660156 -7.125 C 5.046875 -7.351562 5.5 -7.46875 6.015625 -7.46875 C 6.277344 -7.46875 6.53125 -7.4375 6.78125 -7.371094 C 7.03125 -7.308594 7.269531 -7.21875 7.492188 -7.097656 Z "/>
</g>
<g id="glyph-0-3">
<path d="M 1.132812 -10.128906 L 3.039062 -10.128906 L 3.039062 -4.8125 L 5.332031 -7.292969 L 7.644531 -7.292969 L 4.882812 -4.570312 L 7.800781 0 L 5.691406 0 L 3.691406 -3.410156 L 3.039062 -2.785156 L 3.039062 0 L 1.132812 0 Z "/>
</g>
<g id="glyph-0-4">
<path d="M 7.175781 -0.359375 C 6.730469 -0.175781 6.28125 -0.0390625 5.820312 0.0507812 C 5.359375 0.144531 4.875 0.1875 4.363281 0.1875 C 3.144531 0.1875 2.210938 -0.136719 1.566406 -0.789062 C 0.921875 -1.445312 0.597656 -2.386719 0.597656 -3.613281 C 0.597656 -4.800781 0.910156 -5.742188 1.53125 -6.433594 C 2.152344 -7.121094 2.996094 -7.46875 4.070312 -7.46875 C 5.148438 -7.46875 5.988281 -7.148438 6.585938 -6.507812 C 7.183594 -5.867188 7.480469 -4.964844 7.480469 -3.800781 L 7.480469 -3.027344 L 2.539062 -3.027344 C 2.542969 -2.453125 2.710938 -2.027344 3.046875 -1.746094 C 3.382812 -1.464844 3.878906 -1.320312 4.542969 -1.320312 C 4.980469 -1.320312 5.414062 -1.382812 5.839844 -1.511719 C 6.265625 -1.636719 6.710938 -1.835938 7.175781 -2.109375 Z M 5.558594 -4.460938 C 5.550781 -4.964844 5.421875 -5.34375 5.171875 -5.601562 C 4.921875 -5.859375 4.554688 -5.988281 4.070312 -5.988281 C 3.632812 -5.988281 3.28125 -5.855469 3.019531 -5.589844 C 2.761719 -5.324219 2.605469 -4.945312 2.558594 -4.453125 Z "/>
</g>
<g id="glyph-0-5">
<path d="M 4.492188 -9.363281 L 4.492188 -7.292969 L 6.984375 -7.292969 L 6.984375 -5.828125 L 4.492188 -5.828125 L 4.492188 -2.375 C 4.492188 -2.050781 4.570312 -1.816406 4.730469 -1.675781 C 4.886719 -1.535156 5.152344 -1.464844 5.519531 -1.464844 L 6.984375 -1.464844 L 6.984375 0 L 5.382812 0 C 4.289062 0 3.550781 -0.175781 3.164062 -0.523438 C 2.777344 -0.875 2.585938 -1.519531 2.585938 -2.46875 L 2.585938 -5.828125 L 0.722656 -5.828125 L 0.722656 -7.292969 L 2.585938 -7.292969 L 2.585938 -9.363281 Z "/>
</g>
<g id="glyph-0-6">
<rect x="0" y="0" width="0" height="0" mask="url(#mask-0)"/>
</g>
<g id="glyph-0-7">
<path d="M 3.320312 -4.265625 C 2.351562 -4.632812 1.695312 -5.019531 1.355469 -5.425781 C 1.011719 -5.832031 0.839844 -6.378906 0.839844 -7.0625 C 0.839844 -7.945312 1.121094 -8.636719 1.6875 -9.140625 C 2.25 -9.644531 3.023438 -9.894531 4.011719 -9.894531 C 4.457031 -9.894531 4.90625 -9.84375 5.351562 -9.742188 C 5.796875 -9.640625 6.242188 -9.488281 6.679688 -9.289062 L 6.679688 -7.414062 C 6.265625 -7.707031 5.847656 -7.925781 5.421875 -8.078125 C 4.996094 -8.230469 4.578125 -8.308594 4.160156 -8.308594 C 3.695312 -8.308594 3.339844 -8.214844 3.09375 -8.027344 C 2.84375 -7.839844 2.722656 -7.574219 2.722656 -7.226562 C 2.722656 -6.957031 2.8125 -6.734375 2.992188 -6.558594 C 3.171875 -6.382812 3.546875 -6.1875 4.121094 -5.976562 L 4.949219 -5.664062 C 5.730469 -5.378906 6.304688 -4.996094 6.671875 -4.523438 C 7.042969 -4.050781 7.226562 -3.453125 7.226562 -2.734375 C 7.226562 -1.753906 6.9375 -1.019531 6.355469 -0.535156 C 5.777344 -0.0507812 4.902344 0.1875 3.730469 0.1875 C 3.25 0.1875 2.765625 0.132812 2.28125 0.015625 C 1.796875 -0.0976562 1.332031 -0.269531 0.878906 -0.496094 L 0.878906 -2.480469 C 1.390625 -2.117188 1.886719 -1.84375 2.367188 -1.667969 C 2.847656 -1.488281 3.320312 -1.398438 3.789062 -1.398438 C 4.261719 -1.398438 4.628906 -1.507812 4.890625 -1.722656 C 5.148438 -1.9375 5.28125 -2.238281 5.28125 -2.625 C 5.28125 -2.914062 5.191406 -3.167969 5.019531 -3.386719 C 4.847656 -3.605469 4.59375 -3.78125 4.265625 -3.90625 Z "/>
</g>
<g id="glyph-0-8">
<path d="M 7.148438 0 L 1.09375 0 L 1.09375 -9.71875 L 7.148438 -9.71875 L 7.148438 -8.027344 L 3.015625 -8.027344 L 3.015625 -5.929688 L 6.757812 -5.929688 L 6.757812 -4.238281 L 3.015625 -4.238281 L 3.015625 -1.691406 L 7.148438 -1.691406 Z "/>
</g>
<g id="glyph-0-9">
<path d="M 1.464844 0 L 1.464844 -9.71875 L 3.386719 -9.71875 L 3.386719 -1.691406 L 7.492188 -1.691406 L 7.492188 0 Z "/>
</g>
<g id="glyph-0-10">
<path d="M 1.222656 -1.691406 L 3.371094 -1.691406 L 3.371094 -8 L 1.375 -7.507812 L 1.375 -9.238281 L 3.386719 -9.71875 L 5.242188 -9.71875 L 5.242188 -1.691406 L 7.390625 -1.691406 L 7.390625 0 L 1.222656 0 Z "/>
</g>
</g>
<image id="source-64" x="0" y="0" width="0" height="0"/>
<mask id="mask-0">
<use xlink:href="#source-64"/>
</mask>
</defs>
<g fill="rgb(100%, 35.294118%, 35.294118%)" fill-opacity="1">
<use xlink:href="#glyph-0-0" x="30" y="32.375977"/>
<use xlink:href="#glyph-0-1" x="38" y="32.375977"/>
<use xlink:href="#glyph-0-2" x="46" y="32.375977"/>
<use xlink:href="#glyph-0-3" x="54" y="32.375977"/>
<use xlink:href="#glyph-0-4" x="62" y="32.375977"/>
<use xlink:href="#glyph-0-5" x="70" y="32.375977"/>
<use xlink:href="#glyph-0-6" x="78" y="32.375977"/>
<use xlink:href="#glyph-0-7" x="86" y="32.375977"/>
<use xlink:href="#glyph-0-8" x="94" y="32.375977"/>
<use xlink:href="#glyph-0-9" x="102" y="32.375977"/>
<use xlink:href="#glyph-0-9" x="110" y="32.375977"/>
<use xlink:href="#glyph-0-6" x="118" y="32.375977"/>
<use xlink:href="#glyph-0-10" x="126" y="32.375977"/>
</g>
</svg>
